<?xml version="1.0" standalone="no"?>
<!DOCTYPE svg PUBLIC "-//W3C//DTD SVG 20010904//EN"
 "http://www.w3.org/TR/2001/REC-SVG-20010904/DTD/svg10.dtd">
<svg version="1.0" xmlns="http://www.w3.org/2000/svg"
 width="200.000000pt" height="200.000000pt" viewBox="0 0 200.000000 200.000000"
 preserveAspectRatio="xMidYMid meet">
<metadata>
Created by potrace 1.14, written by Peter Selinger 2001-2017
</metadata>
<g transform="translate(0.000000,200.000000) scale(0.100000,-0.100000)"
fill="#000000" stroke="none">
<path d="M1462 1082 c-55 -153 -102 -286 -104 -297 -3 -18 3 -20 78 -23 l82
-3 13 43 14 43 97 3 96 3 14 -43 15 -43 87 -3 88 -3 -7 28 c-8 32 -180 481
-204 533 l-16 34 -76 2 -76 2 -101 -276z m208 2 c29 -94 28 -94 -31 -94 -50 0
-51 1 -45 25 9 36 47 135 51 135 2 0 13 -30 25 -66z"/>
<path d="M79 1343 c0 -5 -1 -136 -1 -293 l0 -285 155 -3 c137 -2 161 0 211 18
125 47 199 206 162 349 -31 122 -102 189 -220 210 -71 12 -306 15 -307 4z
m301 -145 c58 -40 75 -72 75 -141 0 -109 -62 -172 -162 -165 l-48 3 -8 45 c-9
49 -4 251 7 269 13 20 100 13 136 -11z"/>
<path d="M694 1055 l0 -296 75 3 76 3 -4 133 c-3 131 5 166 27 105 5 -16 31
-77 57 -136 43 -99 50 -108 72 -105 22 3 32 20 80 141 31 75 60 137 66 137 6
0 7 -53 2 -140 l-7 -140 83 0 84 0 0 295 1 295 -76 0 -76 0 -74 -155 c-40 -85
-76 -155 -80 -155 -13 0 -25 23 -90 168 l-63 142 -76 0 -76 0 -1 -295z"/>
</g>
</svg>
