<?xml version="1.0" standalone="no"?>
<!DOCTYPE svg PUBLIC "-//W3C//DTD SVG 20010904//EN"
 "http://www.w3.org/TR/2001/REC-SVG-20010904/DTD/svg10.dtd">
<svg version="1.0" xmlns="http://www.w3.org/2000/svg"
 width="70.000000pt" height="70.000000pt" viewBox="0 0 70.000000 70.000000"
 preserveAspectRatio="xMidYMid meet">
<metadata>
Created by potrace 1.11, written by Peter Selinger 2001-2013
</metadata>
<g transform="translate(0.000000,70.000000) scale(0.100000,-0.100000)"
fill="#000000" stroke="none">
<path d="M0 350 l0 -350 350 0 350 0 0 80 0 80 -340 0 c-220 0 -340 4 -340 10
0 6 120 10 340 10 l340 0 0 135 0 135 -50 0 -50 0 0 -115 c0 -96 -3 -115 -15
-115 -12 0 -15 19 -15 115 l0 115 -131 0 -130 0 3 -41 3 -42 69 -1 c46 -1 71
-5 73 -13 4 -10 -15 -13 -71 -13 l-76 0 0 -45 0 -44 82 -3 c54 -2 83 -7 86
-15 3 -10 -21 -13 -97 -13 l-101 0 0 130 0 130 210 0 210 0 0 110 0 110 -350
0 -350 0 0 -350z m130 33 c45 -54 86 -99 91 -101 5 -2 9 41 9 97 0 83 3 101
15 101 13 0 15 -21 15 -130 0 -164 -5 -165 -115 -30 -44 54 -83 99 -87 99 -5
1 -8 -44 -8 -100 0 -76 -3 -100 -12 -97 -9 3 -14 38 -16 118 -3 117 0 140 17
140 5 0 47 -44 91 -97z"/>
</g>
</svg>
